<?xml version="1.0" encoding="UTF-8"?>
<!-- Generator: visioncortex VTracer 0.6.4 -->
<svg version="1.1" xmlns="http://www.w3.org/2000/svg" width="247" height="247">
<path d="M0 0 C81.51 0 163.02 0 247 0 C247 81.51 247 163.02 247 247 C165.49 247 83.98 247 0 247 C0 165.49 0 83.98 0 0 Z " fill="#000000" transform="translate(0,0)"/>
<path d="M0 0 C3.96 0 7.92 0 12 0 C17.28 10.56 22.56 21.12 28 32 C28.33 21.44 28.66 10.88 29 0 C32.3 0 35.6 0 39 0 C39 11.55 39 23.1 39 35 C32.07 35 25.14 35 18 35 C17.34 33.02 16.68 31.04 16 29 C12.73 29.02 9.46 29.1 6.19 29.19 C5.26 29.19 4.33 29.2 3.37 29.21 C0.82 29.29 -1.52 29.4 -4 30 C-4.75 31.26 -4.75 31.26 -5.51 32.55 C-6.25 33.76 -6.25 33.76 -7 35 C-10.37 35.46 -13.62 35.29 -17 35 C-11.48 23.25 -5.86 11.58 0 0 Z " fill="#EBEBEB" transform="translate(174,108)"/>
<path d="M0 0 C6.68 -0.12 6.68 -0.12 13.5 -0.25 C15.58 -0.3 15.58 -0.3 17.71 -0.36 C24.95 -0.43 29.93 -0.08 36 4 C38.76 7.97 39.7 11.2 39 16 C35.99 21.69 35.99 21.69 32.86 22.67 C32.25 22.78 31.63 22.89 31 23 C31.58 23.78 32.16 24.56 32.75 25.37 C33.86 26.89 33.86 26.89 35 28.44 C35.74 29.45 36.49 30.46 37.25 31.5 C39 34 39 34 39 35 C34.88 35.54 31.1 35.8 27 35 C25.11 32.83 24.03 30.62 22.71 28.07 C21.1 25.71 21.1 25.71 17.98 25.18 C14.96 24.96 12.02 24.88 9 25 C9 28.3 9 31.6 9 35 C6.03 35 3.06 35 0 35 C0 23.45 0 11.9 0 0 Z " fill="#F5F5F5" transform="translate(117,108)"/>
<path d="M0 0 C3.3 0 6.6 0 10 0 C13.63 7.26 17.26 14.52 21 22 C23.1 19.21 24.65 16.96 26.19 13.93 C26.58 13.18 26.97 12.43 27.37 11.65 C28.17 10.08 28.97 8.51 29.77 6.94 C30.16 6.19 30.54 5.44 30.94 4.68 C31.29 3.99 31.64 3.31 31.99 2.61 C33 1 33 1 35 0 C37.64 0 40.28 0 43 0 C43 11.22 43 22.44 43 34 C40.03 34 37.06 34 34 34 C33.5 28.06 33.5 28.06 33 22 C31.02 25.96 29.04 29.92 27 34 C23.37 34 19.74 34 16 34 C14.02 30.04 12.04 26.08 10 22 C9.67 25.96 9.34 29.92 9 34 C6.03 34 3.06 34 0 34 C0 22.78 0 11.56 0 0 Z " fill="#F8F8F8" transform="translate(35,109)"/>
<path d="M0 0 C11.22 0 22.44 0 34 0 C34 2.97 34 5.94 34 9 C25.75 9 17.5 9 9 9 C9 10.32 9 11.64 9 13 C15.6 13 22.2 13 29 13 C29 15.97 29 18.94 29 22 C22.4 22 15.8 22 9 22 C9 23.32 9 24.64 9 26 C17.25 26 25.5 26 34 26 C34 28.97 34 31.94 34 35 C22.78 35 11.56 35 0 35 C0 23.45 0 11.9 0 0 Z " fill="#F5F5F5" transform="translate(81,108)"/>
<path d="M0 0 C2.64 0 5.28 0 8 0 C8 11.22 8 22.44 8 34 C5.36 34 2.72 34 0 34 C0 22.78 0 11.56 0 0 Z " fill="#FEFEFE" transform="translate(204,109)"/>
<path d="M0 0 C3.15 -0.03 6.29 -0.05 9.44 -0.06 C10.34 -0.07 11.23 -0.08 12.16 -0.09 C13.01 -0.09 13.87 -0.09 14.75 -0.1 C15.93 -0.11 15.93 -0.11 17.14 -0.11 C19 0 19 0 20 1 C20.12 3.5 20.12 3.5 20 6 C19 7 19 7 17.14 7.11 C16.35 7.11 15.56 7.1 14.75 7.1 C13.89 7.09 13.04 7.09 12.16 7.09 C11.26 7.08 10.36 7.07 9.44 7.06 C8.54 7.06 7.63 7.05 6.71 7.05 C4.47 7.04 2.24 7.02 0 7 C0 4.69 0 2.38 0 0 Z " fill="#1B1B1B" transform="translate(126,117)"/>
<path d="M0 0 C3.48 3.02 4.79 5.57 6 10 C2.7 10 -0.6 10 -4 10 C-2.89 6.51 -1.74 3.23 0 0 Z " fill="#0D0D0D" transform="translate(179,118)"/>
<path d="M0 0 C1.69 1.65 3.35 3.31 5 5 C5 5.33 5 5.66 5 6 C3.02 6 1.04 6 -1 6 C-1.04 4.33 -1.04 2.67 -1 1 C-0.67 0.67 -0.34 0.34 0 0 Z " fill="#EAEAEA" transform="translate(151,137)"/>
</svg>
